<?xml version="1.0" standalone="no"?>
<!DOCTYPE svg PUBLIC "-//W3C//DTD SVG 20010904//EN"
 "http://www.w3.org/TR/2001/REC-SVG-20010904/DTD/svg10.dtd">
<svg version="1.0" xmlns="http://www.w3.org/2000/svg"
 width="381.000000pt" height="381.000000pt" viewBox="0 0 381.000000 381.000000"
 preserveAspectRatio="xMidYMid meet">
<metadata>
Created by potrace 1.14, written by Peter Selinger 2001-2017
</metadata>
<g transform="translate(0.000000,381.000000) scale(0.100000,-0.100000)"
fill="#000000" stroke="none">
<path d="M1675 3794 c-125 -16 -261 -47 -373 -85 -114 -38 -127 -44 -260 -111
-346 -176 -633 -459 -819 -808 -60 -114 -138 -314 -158 -410 -2 -8 -10 -44
-18 -80 -76 -330 -47 -726 80 -1065 60 -160 190 -389 296 -520 121 -149 344
-343 506 -440 179 -108 426 -202 613 -235 104 -18 108 -19 187 -26 872 -83
1700 453 1976 1281 73 218 98 366 99 595 1 222 -20 374 -78 565 -185 615 -675
1099 -1291 1277 -54 15 -111 31 -125 33 -14 3 -36 7 -50 10 -29 6 -57 11 -125
20 -88 13 -357 12 -460 -1z m413 -118 c32 -3 69 -8 85 -11 122 -21 156 -29
229 -50 438 -131 807 -420 1039 -812 96 -164 173 -363 205 -533 3 -14 9 -44
14 -67 24 -103 33 -454 13 -474 -18 -18 -645 -183 -768 -202 -16 -3 -64 -12
-105 -21 -41 -8 -88 -18 -105 -20 -16 -3 -73 -12 -125 -21 -52 -9 -106 -18
-120 -20 -14 -3 -50 -7 -80 -11 -30 -3 -63 -8 -74 -10 -10 -2 -51 -6 -90 -10
-39 -3 -82 -7 -94 -9 -167 -26 -878 -26 -982 0 -8 2 -41 6 -73 10 -259 28
-580 119 -793 226 l-122 60 -6 42 c-7 42 -9 287 -2 323 2 10 7 45 11 78 28
232 120 490 248 696 175 279 418 502 714 653 150 76 309 131 473 162 33 6 166
24 205 28 48 4 242 0 303 -7z m1556 -2149 c-18 -87 -70 -248 -105 -325 l-29
-64 -37 6 c-21 3 -56 9 -78 11 -22 3 -51 8 -65 10 -14 3 -38 7 -55 9 -248 38
-738 130 -778 146 -21 8 -21 9 3 10 14 1 33 3 42 5 9 2 34 6 56 9 21 2 110 19
198 37 192 38 168 33 284 59 52 12 102 23 111 25 32 7 325 85 389 104 36 10
68 19 71 20 4 0 1 -27 -7 -62z m-3391 -21 c43 -20 81 -36 83 -36 3 0 44 -23
91 -50 98 -59 245 -133 353 -180 41 -18 89 -38 105 -45 164 -72 664 -231 782
-249 30 -5 22 -14 -8 -11 -19 2 -85 6 -147 10 -62 3 -122 8 -135 10 -12 2 -49
6 -82 9 -96 8 -168 16 -192 20 -12 3 -53 8 -90 11 -37 4 -70 9 -73 10 -3 2
-26 6 -50 10 -109 15 -247 39 -402 71 -91 19 -169 34 -171 34 -10 0 -66 129
-97 222 -35 107 -61 210 -51 204 3 -2 41 -20 84 -40z m848 -221 c9 -2 56 -6
105 -10 49 -4 107 -9 129 -11 51 -5 497 -5 550 0 22 2 90 7 151 11 105 6 116
5 240 -28 112 -30 229 -59 299 -73 89 -18 235 -46 310 -59 102 -19 95 -18 230
-40 55 -9 111 -18 125 -20 43 -8 184 -27 197 -28 15 0 7 -16 -54 -109 l-44
-67 -87 4 c-254 13 -310 16 -337 20 -16 2 -66 7 -110 10 -44 3 -93 8 -110 10
-16 2 -88 11 -160 20 -155 18 -152 18 -380 57 -291 49 -559 112 -824 195 -144
44 -361 121 -371 130 -4 5 100 -5 141 -12z m-639 -319 c35 -8 77 -17 93 -20
17 -2 98 -16 180 -30 83 -15 168 -28 190 -31 22 -3 51 -7 65 -10 30 -5 94 -13
170 -20 30 -3 64 -7 76 -9 11 -2 65 -7 120 -11 54 -4 108 -9 119 -11 68 -13
511 -20 805 -13 47 1 123 -4 170 -10 136 -19 225 -29 310 -36 25 -2 81 -7 125
-10 44 -4 94 -8 110 -10 17 -2 34 -4 39 -4 20 -2 -6 -13 -129 -57 -224 -79
-524 -145 -770 -169 -38 -4 -79 -9 -90 -11 -130 -24 -942 -23 -1035 1 -8 2
-51 7 -95 10 -135 11 -143 15 -257 128 -98 98 -184 202 -242 295 -14 23 -24
42 -22 42 3 0 33 -6 68 -14z m2663 -354 c-247 -232 -592 -406 -905 -457 -19
-3 -46 -7 -60 -10 -125 -23 -344 -22 -515 1 -182 24 -447 115 -605 208 l-45
26 100 -6 c55 -3 129 -7 165 -9 78 -5 499 -5 555 -1 22 2 90 6 150 10 61 4
121 9 135 11 14 3 48 7 75 10 289 32 634 115 861 208 60 25 114 45 119 46 6 0
-8 -16 -30 -37z"/>
<path d="M1828 2685 c-229 -62 -462 -407 -604 -895 -33 -115 -71 -307 -61
-316 24 -24 840 -23 951 1 11 2 46 7 76 9 92 9 145 15 288 37 75 12 143 21
150 22 6 0 12 10 12 21 -1 38 -38 190 -75 304 -99 307 -219 526 -370 679 -127
128 -243 171 -367 138z"/>
</g>
</svg>
